<svg class="sc-color-background-inverse" width="224" height="48" viewBox="0 0 224 48" fill="none" xmlns="http://www.w3.org/2000/svg">
<g clip-path="url(#clip0_451_1073)">
<g clip-path="url(#clip1_451_1073)">
<path d="M32 16H0V44C0 46.2091 1.79086 48 4 48H32C40.8366 48 48 40.8366 48 32C48 23.1634 40.8366 16 32 16Z" fill="#5A76FF"/>
<path d="M16 0H44C46.2091 0 48 1.79086 48 4V32H16C7.16344 32 0 24.8366 0 16C0 7.16344 7.16344 0 16 0Z" fill="#3355FF"/>
<path d="M48 32C48 23.1634 40.8366 16 32 16H0C0 24.8366 7.16344 32 16 32H48Z" fill="#2945CE"/>
</g>
<path class="text" d="M85.2955 13.8409H94.7273C94.5909 5.54545 87.7727 -0.181824 77.4091 -0.181824C67.2046 -0.181824 59.7273 5.45454 59.7727 13.9091C59.75 20.7727 64.5909 24.7045 72.4546 26.5909L77.5227 27.8636C82.5909 29.0909 85.4091 30.5454 85.4318 33.6818C85.4091 37.0909 82.1818 39.4091 77.1818 39.4091C72.0682 39.4091 68.3864 37.0455 68.0682 32.3864H58.5455C58.7955 42.4545 66 47.6591 77.2955 47.6591C88.6591 47.6591 95.3409 42.2273 95.3637 33.7045C95.3409 25.9545 89.5 21.8409 81.4091 20.0227L77.2273 19.0227C73.1818 18.0909 69.7955 16.5909 69.8637 13.25C69.8637 10.25 72.5227 8.04545 77.3409 8.04545C82.0455 8.04545 84.9318 10.1818 85.2955 13.8409Z" fill="white"/>
<path class="text" d="M115.574 47.6818C124.869 47.6818 130.71 42.2273 131.165 34.2045H122.028C121.46 37.9318 119.006 40.0227 115.688 40.0227C111.165 40.0227 108.233 36.2273 108.233 29.5455C108.233 22.9545 111.188 19.1818 115.688 19.1818C119.233 19.1818 121.506 21.5227 122.028 25H131.165C130.756 16.9318 124.642 11.6364 115.528 11.6364C104.938 11.6364 98.3921 18.9773 98.3921 29.6818C98.3921 40.2954 104.824 47.6818 115.574 47.6818Z" fill="white"/>
<path class="text" d="M145.318 47.6591C150.477 47.6591 153.818 45.4091 155.523 42.1591H155.795V47H164.977V23.4545C164.977 15.1364 157.932 11.6364 150.159 11.6364C141.795 11.6364 136.295 15.6364 134.955 22L143.909 22.7273C144.568 20.4091 146.636 18.7045 150.114 18.7045C153.409 18.7045 155.295 20.3636 155.295 23.2273V23.3636C155.295 25.6136 152.909 25.9091 146.841 26.5C139.932 27.1364 133.727 29.4545 133.727 37.25C133.727 44.1591 138.659 47.6591 145.318 47.6591ZM148.091 40.9773C145.114 40.9773 142.977 39.5909 142.977 36.9318C142.977 34.2045 145.227 32.8636 148.636 32.3864C150.75 32.0909 154.205 31.5909 155.364 30.8182V34.5227C155.364 38.1818 152.341 40.9773 148.091 40.9773Z" fill="white"/>
<path class="text" d="M180.17 0.45454H170.489V47H180.17V0.45454Z" fill="white"/>
<path class="text" d="M201.835 47.6818C210.472 47.6818 216.29 43.4773 217.653 37L208.699 36.4091C207.722 39.0682 205.222 40.4545 201.994 40.4545C197.153 40.4545 194.085 37.25 194.085 32.0455V32.0227H217.858V29.3636C217.858 17.5 210.676 11.6364 201.449 11.6364C191.176 11.6364 184.517 18.9318 184.517 29.7045C184.517 40.7727 191.085 47.6818 201.835 47.6818ZM194.085 26.0227C194.29 22.0455 197.313 18.8636 201.608 18.8636C205.813 18.8636 208.722 21.8636 208.744 26.0227H194.085Z" fill="white"/>
</g>
<defs>
<clipPath id="clip0_451_1073">
<rect width="221" height="48" fill="white"/>
</clipPath>
<clipPath id="clip1_451_1073">
<rect width="48" height="48" fill="white"/>
</clipPath>
</defs>
</svg>
