<svg class="sc-color-background-default" width="224" height="48" viewBox="0 0 224 48" fill="none" xmlns="http://www.w3.org/2000/svg">
<g clip-path="url(#clip0_446_1159)">
<g clip-path="url(#clip1_446_1159)">
<path d="M32 16H0V44C0 46.2091 1.79086 48 4 48H32C40.8366 48 48 40.8366 48 32C48 23.1634 40.8366 16 32 16Z" fill="#5A76FF"/>
<path d="M16 0H44C46.2091 0 48 1.79086 48 4V32H16C7.16344 32 0 24.8366 0 16C0 7.16344 7.16344 0 16 0Z" fill="#3355FF"/>
<path d="M48 32C48 23.1634 40.8366 16 32 16H0C0 24.8366 7.16344 32 16 32H48Z" fill="#2945CE"/>
</g>
<path class="text" d="M85.2955 13.8409C85.1137 12.0076 84.3334 10.5833 82.9546 9.56818C81.5758 8.55302 79.7046 8.04545 77.3409 8.04545C75.7349 8.04545 74.3788 8.27272 73.2727 8.72727C72.1667 9.16666 71.3182 9.7803 70.7273 10.5682C70.1515 11.3561 69.8637 12.25 69.8637 13.25C69.8334 14.0833 70.0076 14.8106 70.3864 15.4318C70.7803 16.053 71.3182 16.5909 72 17.0455C72.6818 17.4848 73.4697 17.8712 74.3637 18.2045C75.2576 18.5227 76.2121 18.7955 77.2273 19.0227L81.4091 20.0227C83.4394 20.4773 85.303 21.0833 87 21.8409C88.697 22.5985 90.1667 23.5303 91.4091 24.6364C92.6515 25.7424 93.6137 27.0455 94.2955 28.5455C94.9924 30.0455 95.3485 31.7651 95.3637 33.7045C95.3485 36.553 94.6212 39.0227 93.1818 41.1136C91.7576 43.1894 89.697 44.803 87 45.9545C84.3182 47.0909 81.0834 47.6591 77.2955 47.6591C73.5379 47.6591 70.2652 47.0833 67.4773 45.9318C64.7046 44.7803 62.5379 43.0758 60.9773 40.8182C59.4318 38.5454 58.6212 35.7348 58.5455 32.3864H68.0682C68.1743 33.947 68.6212 35.25 69.4091 36.2955C70.2121 37.3258 71.2803 38.1061 72.6137 38.6364C73.9621 39.1515 75.4849 39.4091 77.1818 39.4091C78.8485 39.4091 80.2955 39.1667 81.5227 38.6818C82.7652 38.197 83.7273 37.5227 84.4091 36.6591C85.0909 35.7955 85.4318 34.803 85.4318 33.6818C85.4318 32.6364 85.1212 31.7576 84.5 31.0455C83.894 30.3333 83 29.7273 81.8182 29.2273C80.6515 28.7273 79.2197 28.2727 77.5227 27.8636L72.4546 26.5909C68.5303 25.6364 65.4318 24.1439 63.1591 22.1136C60.8864 20.0833 59.7576 17.3485 59.7727 13.9091C59.7576 11.0909 60.5076 8.62878 62.0227 6.52272C63.553 4.41666 65.6515 2.77272 68.3182 1.5909C70.9849 0.409086 74.0152 -0.181824 77.4091 -0.181824C80.8637 -0.181824 83.8788 0.409086 86.4546 1.5909C89.0455 2.77272 91.0606 4.41666 92.5 6.52272C93.9394 8.62878 94.6818 11.0682 94.7273 13.8409H85.2955Z" fill="#1A1A1A"/>
<path class="text" d="M115.574 47.6818C111.998 47.6818 108.922 46.9242 106.347 45.4091C103.786 43.8788 101.816 41.7576 100.438 39.0455C99.0739 36.3333 98.3921 33.2121 98.3921 29.6818C98.3921 26.1061 99.0815 22.9697 100.46 20.2727C101.854 17.5606 103.831 15.447 106.392 13.9318C108.953 12.4015 111.998 11.6364 115.528 11.6364C118.574 11.6364 121.241 12.1894 123.528 13.2954C125.816 14.4015 127.627 15.9545 128.96 17.9545C130.294 19.9545 131.028 22.303 131.165 25H122.028C121.771 23.2576 121.089 21.8561 119.983 20.7955C118.892 19.7197 117.46 19.1818 115.688 19.1818C114.188 19.1818 112.877 19.5909 111.756 20.4091C110.65 21.2121 109.786 22.3864 109.165 23.9318C108.544 25.4773 108.233 27.3485 108.233 29.5455C108.233 31.7727 108.536 33.6667 109.142 35.2273C109.763 36.7879 110.634 37.9773 111.756 38.7955C112.877 39.6136 114.188 40.0227 115.688 40.0227C116.794 40.0227 117.786 39.7954 118.665 39.3409C119.559 38.8864 120.294 38.2273 120.869 37.3636C121.46 36.4848 121.847 35.4318 122.028 34.2045H131.165C131.013 36.8712 130.286 39.2197 128.983 41.25C127.695 43.2651 125.915 44.8409 123.642 45.9773C121.369 47.1136 118.68 47.6818 115.574 47.6818Z" fill="#1A1A1A"/>
<path class="text" d="M145.318 47.6591C143.091 47.6591 141.106 47.2727 139.364 46.5C137.621 45.7121 136.242 44.553 135.227 43.0227C134.227 41.4773 133.727 39.553 133.727 37.25C133.727 35.3106 134.083 33.6818 134.795 32.3636C135.508 31.0455 136.477 29.9848 137.705 29.1818C138.932 28.3788 140.326 27.7727 141.886 27.3636C143.462 26.9545 145.114 26.6667 146.841 26.5C148.871 26.2879 150.508 26.0909 151.75 25.9091C152.992 25.7121 153.894 25.4242 154.455 25.0455C155.015 24.6667 155.295 24.1061 155.295 23.3636V23.2273C155.295 21.7879 154.841 20.6742 153.932 19.8864C153.038 19.0985 151.765 18.7045 150.114 18.7045C148.371 18.7045 146.985 19.0909 145.955 19.8636C144.924 20.6212 144.242 21.5758 143.909 22.7273L134.955 22C135.409 19.8788 136.303 18.0455 137.636 16.5C138.97 14.9394 140.689 13.7424 142.795 12.9091C144.917 12.0606 147.371 11.6364 150.159 11.6364C152.098 11.6364 153.955 11.8636 155.727 12.3182C157.515 12.7727 159.098 13.4773 160.477 14.4318C161.871 15.3864 162.97 16.6136 163.773 18.1136C164.576 19.5985 164.977 21.3788 164.977 23.4545V47H155.795V42.1591H155.523C154.962 43.25 154.212 44.2121 153.273 45.0455C152.333 45.8636 151.205 46.5076 149.886 46.9773C148.568 47.4318 147.045 47.6591 145.318 47.6591ZM148.091 40.9773C149.515 40.9773 150.773 40.697 151.864 40.1364C152.955 39.5606 153.811 38.7879 154.432 37.8182C155.053 36.8485 155.364 35.75 155.364 34.5227V30.8182C155.061 31.0151 154.644 31.197 154.114 31.3636C153.599 31.5151 153.015 31.6591 152.364 31.7955C151.712 31.9167 151.061 32.0303 150.409 32.1364C149.758 32.2273 149.167 32.3106 148.636 32.3864C147.5 32.553 146.508 32.8182 145.659 33.1818C144.811 33.5454 144.152 34.0379 143.682 34.6591C143.212 35.2651 142.977 36.0227 142.977 36.9318C142.977 38.25 143.455 39.2576 144.409 39.9545C145.379 40.6364 146.606 40.9773 148.091 40.9773Z" fill="#1A1A1A"/>
<path class="text" d="M180.17 0.45454V47H170.489V0.45454H180.17Z" fill="#1A1A1A"/>
<path class="text" d="M201.835 47.6818C198.244 47.6818 195.153 46.9545 192.563 45.5C189.987 44.0303 188.002 41.9545 186.608 39.2727C185.214 36.5758 184.517 33.3864 184.517 29.7045C184.517 26.1136 185.214 22.9621 186.608 20.25C188.002 17.5379 189.964 15.4242 192.494 13.9091C195.04 12.3939 198.025 11.6364 201.449 11.6364C203.752 11.6364 205.896 12.0076 207.881 12.75C209.881 13.4773 211.623 14.5758 213.108 16.0455C214.608 17.5151 215.775 19.3636 216.608 21.5909C217.441 23.803 217.858 26.3939 217.858 29.3636V32.0227H188.381V26.0227H208.744C208.744 24.6288 208.441 23.3939 207.835 22.3182C207.229 21.2424 206.388 20.4015 205.313 19.7955C204.252 19.1742 203.017 18.8636 201.608 18.8636C200.138 18.8636 198.835 19.2045 197.699 19.8864C196.578 20.553 195.699 21.4545 195.063 22.5909C194.426 23.7121 194.1 24.9621 194.085 26.3409V32.0455C194.085 33.7727 194.403 35.2651 195.04 36.5227C195.691 37.7803 196.608 38.75 197.79 39.4318C198.972 40.1136 200.373 40.4545 201.994 40.4545C203.07 40.4545 204.055 40.303 204.949 40C205.843 39.697 206.608 39.2424 207.244 38.6364C207.881 38.0303 208.366 37.2879 208.699 36.4091L217.653 37C217.199 39.1515 216.267 41.0303 214.858 42.6364C213.464 44.2273 211.661 45.4697 209.449 46.3636C207.252 47.2424 204.714 47.6818 201.835 47.6818Z" fill="#1A1A1A"/>
</g>
<defs>
<clipPath id="clip0_446_1159">
<rect width="221" height="48" fill="white"/>
</clipPath>
<clipPath id="clip1_446_1159">
<rect width="48" height="48" fill="white"/>
</clipPath>
</defs>
</svg>
