<svg width="64" height="64" viewBox="0 0 64 64" fill="none" xmlns="http://www.w3.org/2000/svg">
<path d="M50.8145 9.11221C52.5944 9.84971 54.2116 10.9307 55.5736 12.2933C56.9362 13.6553 58.0172 15.2725 58.7547 17.0524C59.4922 18.8323 59.8718 20.74 59.8718 22.6667C59.8718 24.5933 59.4922 26.501 58.7547 28.2809C58.0172 30.0608 56.9362 31.678 55.5736 33.04L52.7469 35.8667L32.0002 56.6133L11.2536 35.8667L8.4269 33.04C5.67572 30.2888 4.13013 26.5574 4.13013 22.6667C4.13013 18.7759 5.67572 15.0445 8.4269 12.2933C11.1781 9.54214 14.9095 7.99654 18.8002 7.99654C22.691 7.99654 26.4224 9.54214 29.1736 12.2933L32.0002 15.12L34.8269 12.2933C36.1889 10.9307 37.8061 9.84971 39.586 9.11221C41.3658 8.37471 43.2736 7.99512 45.2002 7.99512C47.1269 7.99512 49.0346 8.37471 50.8145 9.11221Z" stroke="#1A1A1A" stroke-width="4" stroke-linecap="round" stroke-linejoin="round"/>
</svg>
