<svg width="64" height="64" viewBox="0 0 64 64" fill="none" xmlns="http://www.w3.org/2000/svg">
<path d="M58.6666 8H42.6666C39.8376 8 37.1245 9.12381 35.1241 11.1242C33.1237 13.1246 31.9999 15.8377 31.9999 18.6667V56C31.9999 53.8783 32.8428 51.8434 34.3431 50.3431C35.8434 48.8429 37.8782 48 39.9999 48H58.6666V8Z" stroke="#1A1A1A" stroke-width="4" stroke-linecap="round" stroke-linejoin="round"/>
<path d="M5.33325 8H21.3333C24.1622 8 26.8753 9.12381 28.8757 11.1242C30.8761 13.1246 31.9999 15.8377 31.9999 18.6667V56C31.9999 53.8783 31.1571 51.8434 29.6568 50.3431C28.1565 48.8429 26.1217 48 23.9999 48H5.33325V8Z" stroke="#1A1A1A" stroke-width="4" stroke-linecap="round" stroke-linejoin="round"/>
</svg>
